<svg width="26" height="26" viewBox="0 0 26 26" xmlns="http://www.w3.org/2000/svg"><g fill="none" fill-rule="evenodd"><g><path d="M13.222 20.122L10 20.514v-1.946h2.12H8.5c-1.376 0-2.5-1.093-2.5-2.433 0-1.34 1.122-2.432 2.5-2.432h7c2.485 0 4.5-1.965 4.5-4.38 0-2.417-2.023-4.377-4.5-4.377H8.855C8.425 3.54 7.085 2.514 5.5 2.514 3.567 2.514 2 4.038 2 5.92 2 7.8 3.567 9.323 5.5 9.323c1.586 0 2.925-1.025 3.355-2.432H15.5c1.376 0 2.5 1.092 2.5 2.432 0 1.34-1.122 2.433-2.5 2.433h-7c-2.485 0-4.5 1.965-4.5 4.378 0 2.418 2.023 4.38 4.5 4.38h1.75H10v-1.947s2.123.242 3.275.385l-2.254-1.828c-.204-.386-.138-.875.187-1.19.393-.384 1.01-.367 1.383.03l2.633 2.806c.176.188.266.425.272.662.028.277-.057.562-.256.78l-1.307 1.423-1.353 1.475c-.37.402-.982.417-1.373.037-.385-.374-.432-1.006-.12-1.432l2.135-1.593zm7.278 2.824c1.933 0 3.5-1.525 3.5-3.405s-1.567-3.405-3.5-3.405S17 17.66 17 19.54c0 1.88 1.567 3.406 3.5 3.406zm0-1.703c.966 0 1.75-.762 1.75-1.702s-.784-1.702-1.75-1.702-1.75.762-1.75 1.703c0 .94.784 1.703 1.75 1.703zm-15-13.62c.966 0 1.75-.764 1.75-1.704S6.466 4.215 5.5 4.215 3.75 4.98 3.75 5.92c0 .94.784 1.702 1.75 1.702z" fill="#4D4D4D"/></g></g></svg>